<svg xmlns="http://www.w3.org/2000/svg" viewBox="0 0 352 378">
  <path id="liquid" fill="#F4F1E9" d="M 273 72.5 L 318 76.5 L 318 243.5 L 314 269.5 L 303 285.5 L 277 297.5 L 242 303.5 L 135 305.5 L 76 298.5 L 60 292.5 L 45 281.5 L 38 269.5 L 34 244.5 L 36 108.5 L 115 106.5 L 211 81.5 L 273 72.5 Z"/>
  <path id="bubbles" fill="#FFFFFF" d="M 233.8 103 A 7.2 7.2 0 1 0 248.2 103 A 7.2 7.2 0 1 0 233.8 103 Z M 66.2 145.5 A 9.2 9.2 0 1 0 84.8 145.5 A 9.2 9.2 0 1 0 66.2 145.5 Z M 269 150.5 A 15 15 0 1 0 299 150.5 A 15 15 0 1 0 269 150.5 Z M 52.2 211 A 7.8 7.8 0 1 0 67.8 211 A 7.8 7.8 0 1 0 52.2 211 Z M 273.2 256 A 7.8 7.8 0 1 0 288.8 256 A 7.8 7.8 0 1 0 273.2 256 Z M 109.2 256.5 A 16.2 16.2 0 1 0 141.8 256.5 A 16.2 16.2 0 1 0 109.2 256.5 Z M 62.2 279 A 5.8 5.8 0 1 0 73.8 279 A 5.8 5.8 0 1 0 62.2 279 Z M 231 282.5 A 8 8 0 1 0 247 282.5 A 8 8 0 1 0 231 282.5 Z"/>
</svg>
