<svg xmlns="http://www.w3.org/2000/svg" width="128" height="128" viewBox="0 0 128 128">
  <path id="white" fill="#ffffff" fill-rule="evenodd" d="M48.50,28.00 L49.00,27.50 L49.50,28.00 L49.00,28.50 L48.50,28.00 Z M37.50,30.00 L38.00,29.50 L38.50,30.00 L38.00,30.50 L37.50,30.00 Z M45.50,33.00 L46.00,32.50 L47.00,32.50 L48.00,32.50 L49.00,32.50 L50.00,32.50 L51.00,32.50 L52.00,32.50 L53.00,32.50 L54.00,32.50 L54.50,33.00 L55.00,33.50 L56.00,33.50 L57.00,33.50 L58.00,33.50 L59.00,33.50 L59.50,34.00 L60.00,34.50 L61.00,34.50 L62.00,34.50 L63.00,34.50 L63.50,35.00 L64.00,35.50 L65.00,35.50 L65.50,36.00 L66.00,36.50 L66.50,37.00 L67.00,37.50 L68.00,37.50 L69.00,37.50 L69.50,38.00 L70.00,38.50 L70.50,39.00 L71.00,39.50 L71.50,40.00 L72.00,40.50 L72.50,41.00 L73.00,41.50 L73.50,42.00 L74.00,42.50 L74.50,43.00 L75.00,43.50 L75.50,44.00 L76.00,44.50 L76.50,45.00 L77.00,45.50 L77.50,46.00 L77.50,47.00 L78.00,47.50 L78.50,48.00 L78.50,49.00 L78.50,50.00 L79.00,50.50 L79.50,51.00 L79.50,52.00 L80.00,52.50 L80.50,53.00 L80.50,54.00 L80.50,55.00 L81.00,55.50 L81.50,56.00 L81.50,57.00 L81.50,58.00 L82.00,58.50 L82.50,59.00 L82.50,60.00 L82.50,61.00 L82.50,62.00 L82.00,62.50 L81.00,62.50 L80.50,63.00 L80.00,63.50 L79.00,63.50 L78.00,63.50 L77.00,63.50 L76.50,64.00 L76.00,64.50 L75.50,65.00 L75.00,65.50 L74.00,65.50 L73.50,66.00 L73.00,66.50 L72.50,67.00 L72.00,67.50 L71.00,67.50 L70.00,67.50 L69.50,68.00 L69.00,68.50 L68.00,68.50 L67.50,69.00 L67.00,69.50 L66.50,70.00 L66.00,70.50 L65.00,70.50 L64.50,71.00 L64.00,71.50 L63.50,72.00 L63.00,72.50 L62.00,72.50 L61.00,72.50 L60.50,73.00 L60.00,73.50 L59.00,73.50 L58.00,73.50 L57.00,73.50 L56.00,73.50 L55.00,73.50 L54.00,73.50 L53.00,73.50 L52.00,73.50 L51.00,73.50 L50.00,73.50 L49.00,73.50 L48.00,73.50 L47.00,73.50 L46.00,73.50 L45.00,73.50 L44.50,73.00 L44.00,72.50 L43.00,72.50 L42.00,72.50 L41.50,73.00 L41.00,73.50 L40.00,73.50 L39.50,73.00 L39.00,72.50 L38.00,72.50 L37.00,72.50 L36.00,72.50 L35.00,72.50 L34.00,72.50 L33.00,72.50 L32.00,72.50 L31.50,72.00 L31.00,71.50 L30.00,71.50 L29.00,71.50 L28.00,71.50 L27.00,71.50 L26.50,71.00 L26.00,70.50 L25.00,70.50 L24.50,70.00 L24.00,69.50 L23.50,69.00 L23.00,68.50 L22.00,68.50 L21.50,68.00 L21.00,67.50 L20.50,67.00 L20.00,66.50 L19.50,67.00 L19.00,67.50 L18.00,67.50 L17.50,67.00 L17.00,66.50 L16.50,66.00 L16.00,65.50 L15.50,65.00 L15.00,64.50 L14.50,64.00 L14.50,63.00 L14.50,62.00 L15.00,61.50 L15.50,62.00 L16.00,62.50 L17.00,62.50 L17.50,63.00 L18.00,63.50 L19.00,63.50 L19.50,64.00 L20.00,64.50 L21.00,64.50 L22.00,64.50 L22.50,65.00 L23.00,65.50 L24.00,65.50 L24.50,66.00 L25.00,66.50 L26.00,66.50 L26.50,67.00 L27.00,67.50 L28.00,67.50 L29.00,67.50 L30.00,67.50 L31.00,67.50 L31.50,68.00 L32.00,68.50 L33.00,68.50 L33.50,68.00 L34.00,67.50 L34.50,68.00 L35.00,68.50 L35.50,68.00 L36.00,67.50 L37.00,67.50 L38.00,67.50 L39.00,67.50 L40.00,67.50 L41.00,67.50 L41.50,68.00 L42.00,68.50 L43.00,68.50 L44.00,68.50 L45.00,68.50 L46.00,68.50 L47.00,68.50 L48.00,68.50 L49.00,68.50 L50.00,68.50 L51.00,68.50 L52.00,68.50 L53.00,68.50 L54.00,68.50 L55.00,68.50 L56.00,68.50 L56.50,68.00 L57.00,67.50 L58.00,67.50 L59.00,67.50 L60.00,67.50 L60.50,67.00 L61.00,66.50 L62.00,66.50 L63.00,66.50 L64.00,66.50 L65.00,66.50 L65.50,66.00 L66.00,65.50 L67.00,65.50 L68.00,65.50 L69.00,65.50 L69.50,65.00 L70.00,64.50 L71.00,64.50 L72.00,64.50 L72.50,64.00 L73.00,63.50 L73.50,63.00 L74.00,62.50 L75.00,62.50 L75.50,62.00 L76.00,61.50 L77.00,61.50 L77.50,61.00 L78.00,60.50 L78.50,60.00 L79.00,59.50 L79.50,59.00 L80.00,58.50 L80.50,58.00 L80.50,57.00 L80.00,56.50 L79.50,56.00 L79.00,55.50 L78.00,55.50 L77.00,55.50 L76.50,56.00 L76.00,56.50 L75.50,57.00 L75.50,58.00 L75.00,58.50 L74.50,59.00 L74.00,59.50 L73.00,59.50 L72.00,59.50 L71.50,60.00 L71.00,60.50 L70.50,61.00 L70.00,61.50 L69.00,61.50 L68.00,61.50 L67.50,62.00 L67.00,62.50 L66.00,62.50 L65.00,62.50 L64.00,62.50 L63.50,62.00 L63.50,61.00 L64.00,60.50 L64.50,60.00 L64.50,59.00 L65.00,58.50 L65.50,58.00 L65.50,57.00 L66.00,56.50 L66.50,56.00 L67.00,55.50 L67.50,55.00 L67.50,54.00 L67.50,53.00 L67.50,52.00 L67.50,51.00 L68.00,50.50 L68.50,50.00 L69.00,49.50 L69.50,49.00 L70.00,48.50 L70.50,48.00 L70.50,47.00 L70.00,46.50 L69.50,46.00 L70.00,45.50 L70.50,45.00 L70.50,44.00 L70.50,43.00 L70.00,42.50 L69.00,42.50 L68.50,43.00 L68.00,43.50 L67.50,44.00 L67.50,45.00 L67.50,46.00 L67.00,46.50 L66.50,47.00 L66.50,48.00 L66.00,48.50 L65.50,49.00 L65.00,49.50 L64.50,50.00 L65.00,50.50 L65.50,51.00 L65.00,51.50 L64.50,52.00 L64.50,53.00 L64.00,53.50 L63.50,54.00 L63.50,55.00 L63.00,55.50 L62.50,56.00 L62.50,57.00 L62.00,57.50 L61.50,58.00 L61.50,59.00 L61.00,59.50 L60.50,60.00 L60.00,60.50 L59.50,61.00 L59.50,62.00 L59.00,62.50 L58.50,63.00 L58.00,63.50 L57.50,64.00 L57.00,64.50 L56.50,65.00 L56.00,65.50 L55.00,65.50 L54.00,65.50 L53.00,65.50 L52.00,65.50 L51.00,65.50 L50.00,65.50 L49.00,65.50 L48.50,65.00 L48.50,64.00 L48.00,63.50 L47.00,63.50 L46.00,63.50 L45.00,63.50 L44.50,63.00 L44.00,62.50 L43.00,62.50 L42.50,62.00 L43.00,61.50 L44.00,61.50 L44.50,61.00 L45.00,60.50 L45.50,60.00 L45.50,59.00 L45.50,58.00 L46.00,57.50 L46.50,57.00 L46.50,56.00 L47.00,55.50 L47.50,55.00 L48.00,54.50 L48.50,54.00 L48.50,53.00 L49.00,52.50 L49.50,52.00 L49.50,51.00 L50.00,50.50 L50.50,50.00 L51.00,49.50 L51.50,49.00 L51.50,48.00 L52.00,47.50 L52.50,47.00 L52.50,46.00 L53.00,45.50 L53.50,45.00 L53.50,44.00 L54.00,43.50 L54.50,43.00 L54.50,42.00 L55.00,41.50 L55.50,41.00 L55.50,40.00 L55.50,39.00 L56.00,38.50 L56.50,38.00 L56.50,37.00 L56.50,36.00 L56.50,35.00 L56.00,34.50 L55.00,34.50 L54.50,35.00 L54.00,35.50 L53.50,36.00 L53.50,37.00 L53.00,37.50 L52.50,38.00 L52.50,39.00 L52.00,39.50 L51.50,40.00 L51.50,41.00 L51.50,42.00 L51.00,42.50 L50.50,43.00 L50.00,43.50 L49.50,44.00 L49.50,45.00 L49.00,45.50 L48.50,46.00 L48.50,47.00 L48.50,48.00 L48.00,48.50 L47.50,49.00 L47.50,50.00 L47.00,50.50 L46.50,51.00 L46.00,51.50 L45.50,52.00 L45.00,52.50 L44.50,53.00 L44.50,54.00 L44.00,54.50 L43.50,55.00 L43.00,55.50 L42.50,56.00 L42.50,57.00 L42.50,58.00 L42.00,58.50 L41.50,59.00 L41.50,60.00 L42.00,60.50 L42.50,61.00 L42.00,61.50 L41.00,61.50 L40.50,61.00 L40.50,60.00 L40.00,59.50 L39.50,59.00 L39.50,58.00 L39.50,57.00 L39.00,56.50 L38.50,56.00 L38.50,55.00 L38.50,54.00 L38.50,53.00 L38.50,52.00 L38.00,51.50 L37.50,51.00 L37.50,50.00 L37.00,49.50 L36.50,49.00 L36.50,48.00 L37.00,47.50 L37.50,47.00 L37.00,46.50 L36.50,46.00 L36.50,45.00 L36.50,44.00 L36.50,43.00 L36.50,42.00 L36.00,41.50 L35.50,41.00 L35.50,40.00 L36.00,39.50 L36.50,39.00 L36.00,38.50 L35.00,38.50 L34.00,38.50 L33.50,39.00 L33.50,40.00 L33.50,41.00 L33.50,42.00 L33.50,43.00 L33.50,44.00 L33.50,45.00 L33.50,46.00 L33.50,47.00 L33.50,48.00 L34.00,48.50 L34.50,49.00 L34.50,50.00 L34.50,51.00 L34.50,52.00 L34.50,53.00 L34.50,54.00 L35.00,54.50 L35.50,55.00 L35.50,56.00 L35.50,57.00 L36.00,57.50 L36.50,58.00 L36.50,59.00 L37.00,59.50 L37.50,60.00 L37.50,61.00 L38.00,61.50 L38.50,62.00 L38.50,63.00 L38.00,63.50 L37.00,63.50 L36.50,63.00 L36.00,62.50 L35.50,62.00 L35.00,61.50 L34.50,61.00 L34.00,60.50 L33.50,60.00 L33.00,59.50 L32.50,59.00 L32.00,58.50 L31.50,58.00 L31.50,57.00 L31.00,56.50 L30.50,56.00 L30.50,55.00 L30.50,54.00 L30.00,53.50 L29.50,53.00 L29.50,52.00 L29.50,51.00 L29.50,50.00 L29.50,49.00 L29.00,48.50 L28.50,48.00 L29.00,47.50 L29.50,47.00 L29.50,46.00 L29.50,45.00 L29.00,44.50 L28.50,44.00 L29.00,43.50 L29.50,43.00 L29.50,42.00 L29.50,41.00 L29.50,40.00 L29.50,39.00 L29.50,38.00 L30.00,37.50 L31.00,37.50 L31.50,37.00 L32.00,36.50 L33.00,36.50 L34.00,36.50 L34.50,36.00 L35.00,35.50 L36.00,35.50 L37.00,35.50 L37.50,35.00 L38.00,34.50 L39.00,34.50 L40.00,34.50 L41.00,34.50 L41.50,34.00 L42.00,33.50 L43.00,33.50 L44.00,33.50 L45.00,33.50 L45.50,33.00 Z M73.50,36.00 L74.00,35.50 L75.00,35.50 L75.50,36.00 L75.50,37.00 L75.00,37.50 L74.50,37.00 L74.00,36.50 L73.50,36.00 Z M75.50,38.00 L76.00,37.50 L76.50,38.00 L76.00,38.50 L75.50,38.00 Z M76.50,39.00 L77.00,38.50 L77.50,39.00 L77.00,39.50 L76.50,39.00 Z M77.50,40.00 L78.00,39.50 L78.50,40.00 L78.00,40.50 L77.50,40.00 Z M25.50,45.00 L26.00,44.50 L26.50,45.00 L26.00,45.50 L25.50,45.00 Z M25.50,48.00 L26.00,47.50 L26.50,48.00 L26.50,49.00 L26.00,49.50 L25.50,49.00 L25.50,48.00 Z M14.50,52.00 L15.00,51.50 L15.50,52.00 L15.50,53.00 L15.00,53.50 L14.50,53.00 L14.50,52.00 Z M25.50,52.00 L26.00,51.50 L27.00,51.50 L27.50,52.00 L27.50,53.00 L27.50,54.00 L27.50,55.00 L27.50,56.00 L28.00,56.50 L28.50,57.00 L28.50,58.00 L28.50,59.00 L29.00,59.50 L29.50,60.00 L30.00,60.50 L30.50,61.00 L30.50,62.00 L31.00,62.50 L31.50,63.00 L32.00,63.50 L32.50,64.00 L32.00,64.50 L31.00,64.50 L30.00,64.50 L29.00,64.50 L28.50,64.00 L28.00,63.50 L27.00,63.50 L26.50,63.00 L26.00,62.50 L25.50,62.00 L25.00,61.50 L24.50,61.00 L24.00,60.50 L23.50,60.00 L23.50,59.00 L23.50,58.00 L24.00,57.50 L24.50,57.00 L24.50,56.00 L25.00,55.50 L25.50,55.00 L25.50,54.00 L25.50,53.00 L25.50,52.00 Z M84.50,53.00 L85.00,52.50 L85.50,53.00 L85.50,54.00 L86.00,54.50 L86.50,55.00 L86.50,56.00 L86.50,57.00 L86.50,58.00 L86.50,59.00 L86.50,60.00 L86.00,60.50 L85.50,60.00 L85.50,59.00 L85.50,58.00 L85.50,57.00 L85.50,56.00 L85.00,55.50 L84.50,55.00 L84.50,54.00 L84.50,53.00 Z M13.50,54.00 L14.00,53.50 L14.50,54.00 L14.00,54.50 L13.50,54.00 Z M12.50,57.00 L13.00,56.50 L13.50,57.00 L14.00,57.50 L14.50,58.00 L14.00,58.50 L13.00,58.50 L12.50,58.00 L12.50,57.00 Z M16.50,57.00 L17.00,56.50 L17.50,57.00 L17.50,58.00 L18.00,58.50 L19.00,58.50 L19.50,59.00 L20.00,59.50 L20.50,60.00 L20.50,61.00 L20.00,61.50 L19.50,61.00 L19.00,60.50 L18.00,60.50 L17.00,60.50 L16.50,60.00 L16.50,59.00 L16.50,58.00 L16.50,57.00 Z M12.50,61.00 L13.00,60.50 L13.50,61.00 L13.50,62.00 L13.50,63.00 L13.50,64.00 L13.00,64.50 L12.50,65.00 L12.50,66.00 L12.50,67.00 L13.00,67.50 L13.50,68.00 L13.50,69.00 L14.00,69.50 L15.00,69.50 L16.00,69.50 L16.50,70.00 L16.50,71.00 L16.50,72.00 L17.00,72.50 L17.50,73.00 L18.00,73.50 L19.00,73.50 L19.50,74.00 L20.00,74.50 L21.00,74.50 L21.50,74.00 L22.00,73.50 L23.00,73.50 L24.00,73.50 L25.00,73.50 L26.00,73.50 L26.50,74.00 L27.00,74.50 L28.00,74.50 L29.00,74.50 L29.50,75.00 L30.00,75.50 L31.00,75.50 L32.00,75.50 L33.00,75.50 L34.00,75.50 L35.00,75.50 L36.00,75.50 L37.00,75.50 L38.00,75.50 L39.00,75.50 L40.00,75.50 L40.50,76.00 L41.00,76.50 L41.50,76.00 L42.00,75.50 L43.00,75.50 L43.50,76.00 L44.00,76.50 L45.00,76.50 L46.00,76.50 L47.00,76.50 L48.00,76.50 L49.00,76.50 L50.00,76.50 L51.00,76.50 L52.00,76.50 L53.00,76.50 L54.00,76.50 L55.00,76.50 L56.00,76.50 L57.00,76.50 L58.00,76.50 L59.00,76.50 L60.00,76.50 L61.00,76.50 L62.00,76.50 L62.50,76.00 L63.00,75.50 L64.00,75.50 L65.00,75.50 L65.50,75.00 L66.00,74.50 L67.00,74.50 L67.50,74.00 L68.00,73.50 L68.50,73.00 L69.00,72.50 L69.50,72.00 L70.00,71.50 L71.00,71.50 L71.50,71.00 L72.00,70.50 L73.00,70.50 L73.50,70.00 L74.00,69.50 L75.00,69.50 L76.00,69.50 L76.50,69.00 L77.00,68.50 L78.00,68.50 L78.50,68.00 L79.00,67.50 L79.50,67.00 L80.00,66.50 L81.00,66.50 L81.50,66.00 L82.00,65.50 L82.50,65.00 L83.00,64.50 L83.50,65.00 L83.50,66.00 L83.00,66.50 L82.50,67.00 L82.50,68.00 L82.50,69.00 L83.00,69.50 L83.50,70.00 L83.50,71.00 L83.00,71.50 L82.50,72.00 L82.00,72.50 L81.50,73.00 L81.00,73.50 L80.00,73.50 L79.00,73.50 L78.50,74.00 L78.00,74.50 L77.50,75.00 L77.00,75.50 L76.00,75.50 L75.50,76.00 L75.00,76.50 L74.00,76.50 L73.50,77.00 L73.00,77.50 L72.00,77.50 L71.00,77.50 L70.00,77.50 L69.00,77.50 L68.00,77.50 L67.50,78.00 L67.00,78.50 L66.00,78.50 L65.00,78.50 L64.50,79.00 L64.00,79.50 L63.00,79.50 L62.00,79.50 L61.50,80.00 L61.00,80.50 L60.00,80.50 L59.00,80.50 L58.00,80.50 L57.50,81.00 L57.00,81.50 L56.00,81.50 L55.00,81.50 L54.00,81.50 L53.00,81.50 L52.00,81.50 L51.00,81.50 L50.00,81.50 L49.00,81.50 L48.50,82.00 L48.00,82.50 L47.50,82.00 L47.00,81.50 L46.50,82.00 L46.00,82.50 L45.00,82.50 L44.00,82.50 L43.50,82.00 L43.00,81.50 L42.00,81.50 L41.00,81.50 L40.00,81.50 L39.00,81.50 L38.00,81.50 L37.00,81.50 L36.00,81.50 L35.50,81.00 L35.00,80.50 L34.00,80.50 L33.00,80.50 L32.00,80.50 L31.00,80.50 L30.00,80.50 L29.00,80.50 L28.00,80.50 L27.00,80.50 L26.50,80.00 L26.00,79.50 L25.00,79.50 L24.00,79.50 L23.00,79.50 L22.00,79.50 L21.50,79.00 L21.00,78.50 L20.00,78.50 L19.00,78.50 L18.50,78.00 L18.00,77.50 L17.00,77.50 L16.00,77.50 L15.50,77.00 L16.00,76.50 L16.50,76.00 L16.50,75.00 L16.50,74.00 L16.00,73.50 L15.50,73.00 L15.50,72.00 L15.00,71.50 L14.50,72.00 L14.50,73.00 L14.50,74.00 L15.00,74.50 L15.50,75.00 L15.50,76.00 L15.00,76.50 L14.50,76.00 L14.00,75.50 L13.50,75.00 L13.50,74.00 L13.00,73.50 L12.50,73.00 L12.50,72.00 L12.50,71.00 L12.50,70.00 L12.00,69.50 L11.50,69.00 L11.50,68.00 L11.50,67.00 L11.50,66.00 L11.50,65.00 L11.50,64.00 L11.50,63.00 L11.50,62.00 L12.00,61.50 L12.50,61.00 Z M10.50,74.00 L11.00,73.50 L11.50,74.00 L11.00,74.50 L10.50,74.00 Z M79.50,77.00 L80.00,76.50 L81.00,76.50 L82.00,76.50 L82.50,77.00 L82.50,78.00 L82.50,79.00 L82.00,79.50 L81.50,80.00 L81.50,81.00 L81.50,82.00 L81.00,82.50 L80.50,83.00 L80.00,83.50 L79.50,84.00 L79.00,84.50 L78.00,84.50 L77.50,85.00 L77.50,86.00 L77.00,86.50 L76.50,87.00 L76.00,87.50 L75.00,87.50 L74.50,88.00 L74.00,88.50 L73.50,89.00 L73.00,89.50 L72.00,89.50 L71.50,90.00 L71.00,90.50 L70.00,90.50 L69.00,90.50 L68.50,90.00 L69.00,89.50 L70.00,89.50 L70.50,89.00 L70.50,88.00 L71.00,87.50 L71.50,87.00 L72.00,86.50 L72.50,86.00 L73.00,85.50 L73.50,85.00 L73.50,84.00 L74.00,83.50 L74.50,83.00 L74.00,82.50 L73.50,82.00 L73.50,81.00 L73.50,80.00 L74.00,79.50 L75.00,79.50 L75.50,79.00 L76.00,78.50 L77.00,78.50 L77.50,78.00 L78.00,77.50 L79.00,77.50 L79.50,77.00 Z M16.50,81.00 L17.00,80.50 L18.00,80.50 L18.50,81.00 L19.00,81.50 L19.50,82.00 L19.50,83.00 L20.00,83.50 L20.50,83.00 L20.50,82.00 L21.00,81.50 L21.50,82.00 L22.00,82.50 L22.50,83.00 L22.50,84.00 L22.50,85.00 L23.00,85.50 L23.50,86.00 L24.00,86.50 L24.50,87.00 L24.50,88.00 L24.50,89.00 L24.00,89.50 L23.50,89.00 L23.00,88.50 L22.50,88.00 L22.00,87.50 L21.50,87.00 L21.00,86.50 L20.50,86.00 L20.00,85.50 L19.50,85.00 L19.00,84.50 L18.50,84.00 L18.50,83.00 L18.00,82.50 L17.50,82.00 L17.00,81.50 L16.50,81.00 Z M68.50,81.00 L69.00,80.50 L70.00,80.50 L71.00,80.50 L71.50,81.00 L71.50,82.00 L71.00,82.50 L70.50,83.00 L70.00,83.50 L69.50,84.00 L69.00,84.50 L68.50,85.00 L68.50,86.00 L68.00,86.50 L67.50,87.00 L67.00,87.50 L66.50,88.00 L66.50,89.00 L66.00,89.50 L65.50,90.00 L65.50,91.00 L65.50,92.00 L65.50,93.00 L65.00,93.50 L64.00,93.50 L63.00,93.50 L62.00,93.50 L61.50,94.00 L61.00,94.50 L60.00,94.50 L59.50,94.00 L60.00,93.50 L60.50,93.00 L61.00,92.50 L61.50,92.00 L61.00,91.50 L60.50,91.00 L60.00,90.50 L59.50,90.00 L59.00,89.50 L58.00,89.50 L57.00,89.50 L56.00,89.50 L55.00,89.50 L54.00,89.50 L53.00,89.50 L52.50,89.00 L52.00,88.50 L51.00,88.50 L50.50,88.00 L51.00,87.50 L52.00,87.50 L53.00,87.50 L54.00,87.50 L54.50,87.00 L55.00,86.50 L55.50,86.00 L55.50,85.00 L56.00,84.50 L56.50,84.00 L57.00,83.50 L58.00,83.50 L59.00,83.50 L60.00,83.50 L61.00,83.50 L61.50,83.00 L62.00,82.50 L63.00,82.50 L64.00,82.50 L64.50,82.00 L65.00,81.50 L66.00,81.50 L67.00,81.50 L68.00,81.50 L68.50,81.00 Z M27.50,84.00 L28.00,83.50 L29.00,83.50 L30.00,83.50 L31.00,83.50 L32.00,83.50 L33.00,83.50 L34.00,83.50 L34.50,84.00 L34.00,84.50 L33.50,85.00 L33.50,86.00 L33.50,87.00 L34.00,87.50 L34.50,88.00 L34.50,89.00 L35.00,89.50 L35.50,90.00 L36.00,90.50 L36.50,91.00 L36.00,91.50 L35.00,91.50 L34.50,91.00 L34.00,90.50 L33.00,90.50 L32.50,90.00 L32.00,89.50 L31.50,89.00 L31.00,88.50 L30.00,88.50 L29.50,88.00 L29.00,87.50 L28.50,87.00 L28.50,86.00 L28.00,85.50 L27.50,85.00 L27.50,84.00 Z M35.50,84.00 L36.00,83.50 L36.50,84.00 L37.00,84.50 L38.00,84.50 L39.00,84.50 L40.00,84.50 L40.50,85.00 L41.00,85.50 L41.50,85.00 L42.00,84.50 L42.50,85.00 L43.00,85.50 L44.00,85.50 L45.00,85.50 L46.00,85.50 L46.50,86.00 L46.50,87.00 L46.50,88.00 L46.50,89.00 L47.00,89.50 L47.50,90.00 L47.50,91.00 L47.00,91.50 L46.00,91.50 L45.50,91.00 L45.00,90.50 L44.00,90.50 L43.00,90.50 L42.00,90.50 L41.00,90.50 L40.50,90.00 L40.00,89.50 L39.50,89.00 L39.50,88.00 L39.00,87.50 L38.00,87.50 L37.50,87.00 L37.00,86.50 L36.50,86.00 L36.00,85.50 L35.50,85.00 L35.50,84.00 Z M48.50,85.00 L49.00,84.50 L50.00,84.50 L51.00,84.50 L52.00,84.50 L52.50,85.00 L52.00,85.50 L51.50,86.00 L51.00,86.50 L50.50,87.00 L50.00,87.50 L49.50,87.00 L49.00,86.50 L48.50,86.00 L48.50,85.00 Z M24.50,90.00 L25.00,89.50 L26.00,89.50 L27.00,89.50 L28.00,89.50 L28.50,90.00 L29.00,90.50 L29.50,91.00 L30.00,91.50 L30.50,92.00 L30.00,92.50 L29.00,92.50 L28.50,92.00 L28.00,91.50 L27.50,91.00 L27.00,90.50 L26.00,90.50 L25.00,90.50 L24.50,90.00 Z M48.50,92.00 L49.00,91.50 L50.00,91.50 L50.50,92.00 L51.00,92.50 L51.50,93.00 L51.00,93.50 L50.00,93.50 L49.00,93.50 L48.50,93.00 L48.50,92.00 Z M74.50,92.00 L75.00,91.50 L75.50,92.00 L75.00,92.50 L74.50,92.00 Z M38.50,93.00 L39.00,92.50 L39.50,93.00 L39.00,93.50 L38.50,93.00 Z M73.50,93.00 L74.00,92.50 L74.50,93.00 L74.00,93.50 L73.50,93.00 Z M39.50,94.00 L40.00,93.50 L41.00,93.50 L42.00,93.50 L42.50,94.00 L42.00,94.50 L41.00,94.50 L40.00,94.50 L39.50,94.00 Z M56.50,94.00 L57.00,93.50 L58.00,93.50 L58.50,94.00 L58.00,94.50 L57.50,95.00 L57.00,95.50 L56.50,95.00 L56.50,94.00 Z M66.50,96.00 L67.00,95.50 L68.00,95.50 L69.00,95.50 L69.50,96.00 L69.00,96.50 L68.00,96.50 L67.00,96.50 L66.50,96.00 Z M63.50,97.00 L64.00,96.50 L65.00,96.50 L66.00,96.50 L66.50,97.00 L66.00,97.50 L65.00,97.50 L64.50,98.00 L64.00,98.50 L63.00,98.50 L62.00,98.50 L61.00,98.50 L60.50,98.00 L61.00,97.50 L62.00,97.50 L63.00,97.50 L63.50,97.00 Z M33.50,98.00 L34.00,97.50 L34.50,98.00 L34.00,98.50 L33.50,98.00 Z M39.50,99.00 L40.00,98.50 L41.00,98.50 L42.00,98.50 L43.00,98.50 L43.50,99.00 L43.00,99.50 L42.00,99.50 L41.00,99.50 L40.00,99.50 L39.50,99.00 Z M48.50,99.00 L49.00,98.50 L50.00,98.50 L50.50,99.00 L50.00,99.50 L49.00,99.50 L48.50,99.00 Z M56.50,99.00 L57.00,98.50 L58.00,98.50 L59.00,98.50 L60.00,98.50 L60.50,99.00 L60.00,99.50 L59.00,99.50 L58.00,99.50 L57.00,99.50 L56.50,99.00 Z"/>
  <path id="black" fill="#000000" fill-rule="evenodd" d="M49.50,28.00 L50.00,27.50 L51.00,27.50 L52.00,27.50 L53.00,27.50 L54.00,27.50 L55.00,27.50 L55.50,28.00 L56.00,28.50 L57.00,28.50 L58.00,28.50 L59.00,28.50 L60.00,28.50 L61.00,28.50 L62.00,28.50 L63.00,28.50 L63.50,29.00 L64.00,29.50 L65.00,29.50 L65.50,30.00 L66.00,30.50 L67.00,30.50 L68.00,30.50 L68.50,31.00 L69.00,31.50 L70.00,31.50 L70.50,32.00 L71.00,32.50 L71.50,33.00 L72.00,33.50 L73.00,33.50 L73.50,34.00 L74.00,34.50 L74.50,35.00 L74.00,35.50 L73.50,36.00 L74.00,36.50 L74.50,37.00 L75.00,37.50 L75.50,38.00 L76.00,38.50 L76.50,39.00 L77.00,39.50 L77.50,40.00 L78.00,40.50 L78.50,40.00 L79.00,39.50 L79.50,40.00 L80.00,40.50 L80.50,41.00 L81.00,41.50 L81.50,42.00 L82.00,42.50 L82.50,43.00 L82.50,44.00 L83.00,44.50 L83.50,45.00 L84.00,45.50 L84.50,46.00 L84.50,47.00 L85.00,47.50 L85.50,48.00 L85.50,49.00 L85.50,50.00 L86.00,50.50 L86.50,51.00 L86.50,52.00 L86.50,53.00 L86.50,54.00 L86.00,54.50 L85.50,54.00 L85.50,53.00 L85.00,52.50 L84.50,53.00 L84.50,54.00 L84.50,55.00 L85.00,55.50 L85.50,56.00 L85.50,57.00 L85.50,58.00 L85.50,59.00 L85.50,60.00 L86.00,60.50 L86.50,60.00 L86.50,59.00 L86.50,58.00 L86.50,57.00 L86.50,56.00 L86.50,55.00 L87.00,54.50 L87.50,55.00 L87.50,56.00 L87.50,57.00 L87.50,58.00 L87.50,59.00 L88.00,59.50 L88.50,60.00 L88.50,61.00 L88.50,62.00 L88.50,63.00 L88.50,64.00 L88.50,65.00 L88.50,66.00 L88.50,67.00 L88.50,68.00 L88.50,69.00 L88.50,70.00 L88.50,71.00 L88.50,72.00 L88.50,73.00 L88.00,73.50 L87.50,74.00 L87.50,75.00 L87.50,76.00 L87.50,77.00 L87.50,78.00 L87.50,79.00 L87.00,79.50 L86.50,80.00 L86.50,81.00 L86.00,81.50 L85.50,82.00 L85.50,83.00 L85.00,83.50 L84.50,84.00 L84.00,84.50 L83.50,85.00 L83.50,86.00 L83.00,86.50 L82.00,86.50 L81.50,87.00 L81.00,87.50 L80.50,88.00 L80.00,88.50 L79.50,89.00 L79.00,89.50 L78.50,90.00 L78.00,90.50 L77.50,91.00 L77.00,91.50 L76.50,92.00 L76.00,92.50 L75.50,92.00 L75.00,91.50 L74.50,92.00 L74.00,92.50 L73.50,93.00 L73.50,94.00 L73.00,94.50 L72.00,94.50 L71.50,95.00 L71.00,95.50 L70.00,95.50 L69.00,95.50 L68.00,95.50 L67.00,95.50 L66.50,96.00 L66.00,96.50 L65.00,96.50 L64.00,96.50 L63.50,97.00 L63.00,97.50 L62.00,97.50 L61.00,97.50 L60.50,98.00 L60.00,98.50 L59.00,98.50 L58.00,98.50 L57.00,98.50 L56.50,99.00 L56.00,99.50 L55.00,99.50 L54.00,99.50 L53.00,99.50 L52.00,99.50 L51.00,99.50 L50.50,99.00 L50.00,98.50 L49.00,98.50 L48.50,99.00 L48.00,99.50 L47.00,99.50 L46.00,99.50 L45.00,99.50 L44.00,99.50 L43.50,99.00 L43.00,98.50 L42.00,98.50 L41.00,98.50 L40.00,98.50 L39.00,98.50 L38.00,98.50 L37.00,98.50 L36.00,98.50 L35.00,98.50 L34.50,98.00 L34.00,97.50 L33.00,97.50 L32.00,97.50 L31.00,97.50 L30.50,97.00 L30.00,96.50 L29.50,96.00 L29.00,95.50 L28.00,95.50 L27.00,95.50 L26.50,95.00 L26.00,94.50 L25.00,94.50 L24.50,94.00 L24.00,93.50 L23.50,93.00 L23.00,92.50 L22.00,92.50 L21.50,92.00 L21.00,91.50 L20.50,91.00 L20.00,90.50 L19.00,90.50 L18.50,90.00 L18.50,89.00 L18.00,88.50 L17.50,88.00 L17.00,87.50 L16.50,87.00 L16.00,86.50 L15.50,86.00 L15.50,85.00 L15.00,84.50 L14.50,84.00 L14.50,83.00 L14.00,82.50 L13.50,82.00 L13.50,81.00 L13.00,80.50 L12.50,80.00 L12.50,79.00 L12.50,78.00 L12.00,77.50 L11.50,77.00 L11.50,76.00 L11.50,75.00 L11.50,74.00 L11.00,73.50 L10.50,73.00 L10.50,72.00 L10.50,71.00 L10.00,70.50 L9.50,70.00 L9.50,69.00 L9.50,68.00 L9.50,67.00 L9.50,66.00 L9.50,65.00 L9.50,64.00 L9.50,63.00 L9.50,62.00 L9.50,61.00 L9.50,60.00 L9.50,59.00 L9.50,58.00 L10.00,57.50 L10.50,57.00 L10.50,56.00 L10.50,55.00 L10.50,54.00 L11.00,53.50 L11.50,53.00 L11.50,52.00 L11.50,51.00 L12.00,50.50 L12.50,50.00 L12.50,49.00 L13.00,48.50 L13.50,48.00 L13.50,47.00 L14.00,46.50 L14.50,46.00 L15.00,45.50 L15.50,45.00 L15.50,44.00 L16.00,43.50 L16.50,43.00 L17.00,42.50 L17.50,42.00 L18.00,41.50 L18.50,41.00 L19.00,40.50 L19.50,40.00 L20.00,39.50 L20.50,39.00 L21.00,38.50 L21.50,38.00 L22.00,37.50 L23.00,37.50 L23.50,37.00 L24.00,36.50 L24.50,36.00 L25.00,35.50 L25.50,35.00 L26.00,34.50 L27.00,34.50 L27.50,34.00 L28.00,33.50 L29.00,33.50 L29.50,33.00 L30.00,32.50 L31.00,32.50 L31.50,32.00 L32.00,31.50 L33.00,31.50 L34.00,31.50 L34.50,31.00 L35.00,30.50 L36.00,30.50 L37.00,30.50 L38.00,30.50 L38.50,30.00 L39.00,29.50 L40.00,29.50 L41.00,29.50 L41.50,29.00 L42.00,28.50 L43.00,28.50 L44.00,28.50 L45.00,28.50 L46.00,28.50 L47.00,28.50 L48.00,28.50 L49.00,28.50 L49.50,28.00 Z M46.00,32.50 L45.50,33.00 L45.00,33.50 L44.00,33.50 L43.00,33.50 L42.00,33.50 L41.50,34.00 L41.00,34.50 L40.00,34.50 L39.00,34.50 L38.00,34.50 L37.50,35.00 L37.00,35.50 L36.00,35.50 L35.00,35.50 L34.50,36.00 L34.00,36.50 L33.00,36.50 L32.00,36.50 L31.50,37.00 L31.00,37.50 L30.00,37.50 L29.50,38.00 L29.50,39.00 L29.50,40.00 L29.50,41.00 L29.50,42.00 L29.50,43.00 L29.00,43.50 L28.50,44.00 L29.00,44.50 L29.50,45.00 L29.50,46.00 L29.50,47.00 L29.00,47.50 L28.50,48.00 L29.00,48.50 L29.50,49.00 L29.50,50.00 L29.50,51.00 L29.50,52.00 L29.50,53.00 L30.00,53.50 L30.50,54.00 L30.50,55.00 L30.50,56.00 L31.00,56.50 L31.50,57.00 L31.50,58.00 L32.00,58.50 L32.50,59.00 L33.00,59.50 L33.50,60.00 L34.00,60.50 L34.50,61.00 L35.00,61.50 L35.50,62.00 L36.00,62.50 L36.50,63.00 L37.00,63.50 L38.00,63.50 L38.50,63.00 L38.50,62.00 L38.00,61.50 L37.50,61.00 L37.50,60.00 L37.00,59.50 L36.50,59.00 L36.50,58.00 L36.00,57.50 L35.50,57.00 L35.50,56.00 L35.50,55.00 L35.00,54.50 L34.50,54.00 L34.50,53.00 L34.50,52.00 L34.50,51.00 L34.50,50.00 L34.50,49.00 L34.00,48.50 L33.50,48.00 L33.50,47.00 L33.50,46.00 L33.50,45.00 L33.50,44.00 L33.50,43.00 L33.50,42.00 L33.50,41.00 L33.50,40.00 L33.50,39.00 L34.00,38.50 L35.00,38.50 L36.00,38.50 L36.50,39.00 L36.00,39.50 L35.50,40.00 L35.50,41.00 L36.00,41.50 L36.50,42.00 L36.50,43.00 L36.50,44.00 L36.50,45.00 L36.50,46.00 L37.00,46.50 L37.50,47.00 L37.00,47.50 L36.50,48.00 L36.50,49.00 L37.00,49.50 L37.50,50.00 L37.50,51.00 L38.00,51.50 L38.50,52.00 L38.50,53.00 L38.50,54.00 L38.50,55.00 L38.50,56.00 L39.00,56.50 L39.50,57.00 L39.50,58.00 L39.50,59.00 L40.00,59.50 L40.50,60.00 L40.50,61.00 L41.00,61.50 L42.00,61.50 L42.50,62.00 L43.00,62.50 L44.00,62.50 L44.50,63.00 L45.00,63.50 L46.00,63.50 L47.00,63.50 L48.00,63.50 L48.50,64.00 L48.50,65.00 L49.00,65.50 L50.00,65.50 L51.00,65.50 L52.00,65.50 L53.00,65.50 L54.00,65.50 L55.00,65.50 L56.00,65.50 L56.50,65.00 L57.00,64.50 L57.50,64.00 L58.00,63.50 L58.50,63.00 L59.00,62.50 L59.50,62.00 L59.50,61.00 L60.00,60.50 L60.50,60.00 L61.00,59.50 L61.50,59.00 L61.50,58.00 L62.00,57.50 L62.50,57.00 L62.50,56.00 L63.00,55.50 L63.50,55.00 L63.50,54.00 L64.00,53.50 L64.50,53.00 L64.50,52.00 L65.00,51.50 L65.50,51.00 L65.00,50.50 L64.50,50.00 L65.00,49.50 L65.50,49.00 L66.00,48.50 L66.50,48.00 L66.50,47.00 L67.00,46.50 L67.50,46.00 L67.50,45.00 L67.50,44.00 L68.00,43.50 L68.50,43.00 L69.00,42.50 L70.00,42.50 L70.50,43.00 L70.50,44.00 L70.50,45.00 L70.00,45.50 L69.50,46.00 L70.00,46.50 L70.50,47.00 L70.50,48.00 L70.00,48.50 L69.50,49.00 L69.00,49.50 L68.50,50.00 L68.00,50.50 L67.50,51.00 L67.50,52.00 L67.50,53.00 L67.50,54.00 L67.50,55.00 L67.00,55.50 L66.50,56.00 L66.00,56.50 L65.50,57.00 L65.50,58.00 L65.00,58.50 L64.50,59.00 L64.50,60.00 L64.00,60.50 L63.50,61.00 L63.50,62.00 L64.00,62.50 L65.00,62.50 L66.00,62.50 L67.00,62.50 L67.50,62.00 L68.00,61.50 L69.00,61.50 L70.00,61.50 L70.50,61.00 L71.00,60.50 L71.50,60.00 L72.00,59.50 L73.00,59.50 L74.00,59.50 L74.50,59.00 L75.00,58.50 L75.50,58.00 L75.50,57.00 L76.00,56.50 L76.50,56.00 L77.00,55.50 L78.00,55.50 L79.00,55.50 L79.50,56.00 L80.00,56.50 L80.50,57.00 L80.50,58.00 L80.00,58.50 L79.50,59.00 L79.00,59.50 L78.50,60.00 L78.00,60.50 L77.50,61.00 L77.00,61.50 L76.00,61.50 L75.50,62.00 L75.00,62.50 L74.00,62.50 L73.50,63.00 L73.00,63.50 L72.50,64.00 L72.00,64.50 L71.00,64.50 L70.00,64.50 L69.50,65.00 L69.00,65.50 L68.00,65.50 L67.00,65.50 L66.00,65.50 L65.50,66.00 L65.00,66.50 L64.00,66.50 L63.00,66.50 L62.00,66.50 L61.00,66.50 L60.50,67.00 L60.00,67.50 L59.00,67.50 L58.00,67.50 L57.00,67.50 L56.50,68.00 L56.00,68.50 L55.00,68.50 L54.00,68.50 L53.00,68.50 L52.00,68.50 L51.00,68.50 L50.00,68.50 L49.00,68.50 L48.00,68.50 L47.00,68.50 L46.00,68.50 L45.00,68.50 L44.00,68.50 L43.00,68.50 L42.00,68.50 L41.50,68.00 L41.00,67.50 L40.00,67.50 L39.00,67.50 L38.00,67.50 L37.00,67.50 L36.00,67.50 L35.50,68.00 L35.00,68.50 L34.50,68.00 L34.00,67.50 L33.50,68.00 L33.00,68.50 L32.00,68.50 L31.50,68.00 L31.00,67.50 L30.00,67.50 L29.00,67.50 L28.00,67.50 L27.00,67.50 L26.50,67.00 L26.00,66.50 L25.00,66.50 L24.50,66.00 L24.00,65.50 L23.00,65.50 L22.50,65.00 L22.00,64.50 L21.00,64.50 L20.00,64.50 L19.50,64.00 L19.00,63.50 L18.00,63.50 L17.50,63.00 L17.00,62.50 L16.00,62.50 L15.50,62.00 L15.00,61.50 L14.50,62.00 L14.50,63.00 L14.50,64.00 L15.00,64.50 L15.50,65.00 L16.00,65.50 L16.50,66.00 L17.00,66.50 L17.50,67.00 L18.00,67.50 L19.00,67.50 L19.50,67.00 L20.00,66.50 L20.50,67.00 L21.00,67.50 L21.50,68.00 L22.00,68.50 L23.00,68.50 L23.50,69.00 L24.00,69.50 L24.50,70.00 L25.00,70.50 L26.00,70.50 L26.50,71.00 L27.00,71.50 L28.00,71.50 L29.00,71.50 L30.00,71.50 L31.00,71.50 L31.50,72.00 L32.00,72.50 L33.00,72.50 L34.00,72.50 L35.00,72.50 L36.00,72.50 L37.00,72.50 L38.00,72.50 L39.00,72.50 L39.50,73.00 L40.00,73.50 L41.00,73.50 L41.50,73.00 L42.00,72.50 L43.00,72.50 L44.00,72.50 L44.50,73.00 L45.00,73.50 L46.00,73.50 L47.00,73.50 L48.00,73.50 L49.00,73.50 L50.00,73.50 L51.00,73.50 L52.00,73.50 L53.00,73.50 L54.00,73.50 L55.00,73.50 L56.00,73.50 L57.00,73.50 L58.00,73.50 L59.00,73.50 L60.00,73.50 L60.50,73.00 L61.00,72.50 L62.00,72.50 L63.00,72.50 L63.50,72.00 L64.00,71.50 L64.50,71.00 L65.00,70.50 L66.00,70.50 L66.50,70.00 L67.00,69.50 L67.50,69.00 L68.00,68.50 L69.00,68.50 L69.50,68.00 L70.00,67.50 L71.00,67.50 L72.00,67.50 L72.50,67.00 L73.00,66.50 L73.50,66.00 L74.00,65.50 L75.00,65.50 L75.50,65.00 L76.00,64.50 L76.50,64.00 L77.00,63.50 L78.00,63.50 L79.00,63.50 L80.00,63.50 L80.50,63.00 L81.00,62.50 L82.00,62.50 L82.50,62.00 L82.50,61.00 L82.50,60.00 L82.50,59.00 L82.00,58.50 L81.50,58.00 L81.50,57.00 L81.50,56.00 L81.00,55.50 L80.50,55.00 L80.50,54.00 L80.50,53.00 L80.00,52.50 L79.50,52.00 L79.50,51.00 L79.00,50.50 L78.50,50.00 L78.50,49.00 L78.50,48.00 L78.00,47.50 L77.50,47.00 L77.50,46.00 L77.00,45.50 L76.50,45.00 L76.00,44.50 L75.50,44.00 L75.00,43.50 L74.50,43.00 L74.00,42.50 L73.50,42.00 L73.00,41.50 L72.50,41.00 L72.00,40.50 L71.50,40.00 L71.00,39.50 L70.50,39.00 L70.00,38.50 L69.50,38.00 L69.00,37.50 L68.00,37.50 L67.00,37.50 L66.50,37.00 L66.00,36.50 L65.50,36.00 L65.00,35.50 L64.00,35.50 L63.50,35.00 L63.00,34.50 L62.00,34.50 L61.00,34.50 L60.00,34.50 L59.50,34.00 L59.00,33.50 L58.00,33.50 L57.00,33.50 L56.00,33.50 L55.00,33.50 L54.50,33.00 L54.00,32.50 L53.00,32.50 L52.00,32.50 L51.00,32.50 L50.00,32.50 L49.00,32.50 L48.00,32.50 L47.00,32.50 L46.00,32.50 Z M54.50,35.00 L55.00,34.50 L56.00,34.50 L56.50,35.00 L56.50,36.00 L56.50,37.00 L56.50,38.00 L56.00,38.50 L55.50,39.00 L55.50,40.00 L55.50,41.00 L55.00,41.50 L54.50,42.00 L54.50,43.00 L54.00,43.50 L53.50,44.00 L53.50,45.00 L53.00,45.50 L52.50,46.00 L52.50,47.00 L52.00,47.50 L51.50,48.00 L51.50,49.00 L51.00,49.50 L50.50,50.00 L50.00,50.50 L49.50,51.00 L49.50,52.00 L49.00,52.50 L48.50,53.00 L48.50,54.00 L48.00,54.50 L47.50,55.00 L47.00,55.50 L46.50,56.00 L46.50,57.00 L46.00,57.50 L45.50,58.00 L45.50,59.00 L45.50,60.00 L45.00,60.50 L44.50,61.00 L44.00,61.50 L43.00,61.50 L42.50,61.00 L42.00,60.50 L41.50,60.00 L41.50,59.00 L42.00,58.50 L42.50,58.00 L42.50,57.00 L42.50,56.00 L43.00,55.50 L43.50,55.00 L44.00,54.50 L44.50,54.00 L44.50,53.00 L45.00,52.50 L45.50,52.00 L46.00,51.50 L46.50,51.00 L47.00,50.50 L47.50,50.00 L47.50,49.00 L48.00,48.50 L48.50,48.00 L48.50,47.00 L48.50,46.00 L49.00,45.50 L49.50,45.00 L49.50,44.00 L50.00,43.50 L50.50,43.00 L51.00,42.50 L51.50,42.00 L51.50,41.00 L51.50,40.00 L52.00,39.50 L52.50,39.00 L52.50,38.00 L53.00,37.50 L53.50,37.00 L53.50,36.00 L54.00,35.50 L54.50,35.00 Z M75.50,37.00 L76.00,36.50 L76.50,37.00 L76.00,37.50 L75.50,37.00 Z M76.50,38.00 L77.00,37.50 L77.50,38.00 L77.00,38.50 L76.50,38.00 Z M77.50,39.00 L78.00,38.50 L78.50,39.00 L78.00,39.50 L77.50,39.00 Z M26.00,44.50 L25.50,45.00 L26.00,45.50 L26.50,45.00 L26.00,44.50 Z M26.00,47.50 L25.50,48.00 L25.50,49.00 L26.00,49.50 L26.50,49.00 L26.50,48.00 L26.00,47.50 Z M15.00,51.50 L14.50,52.00 L14.50,53.00 L14.00,53.50 L13.50,54.00 L14.00,54.50 L14.50,54.00 L15.00,53.50 L15.50,53.00 L15.50,52.00 L15.00,51.50 Z M26.00,51.50 L25.50,52.00 L25.50,53.00 L25.50,54.00 L25.50,55.00 L25.00,55.50 L24.50,56.00 L24.50,57.00 L24.00,57.50 L23.50,58.00 L23.50,59.00 L23.50,60.00 L24.00,60.50 L24.50,61.00 L25.00,61.50 L25.50,62.00 L26.00,62.50 L26.50,63.00 L27.00,63.50 L28.00,63.50 L28.50,64.00 L29.00,64.50 L30.00,64.50 L31.00,64.50 L32.00,64.50 L32.50,64.00 L32.00,63.50 L31.50,63.00 L31.00,62.50 L30.50,62.00 L30.50,61.00 L30.00,60.50 L29.50,60.00 L29.00,59.50 L28.50,59.00 L28.50,58.00 L28.50,57.00 L28.00,56.50 L27.50,56.00 L27.50,55.00 L27.50,54.00 L27.50,53.00 L27.50,52.00 L27.00,51.50 L26.00,51.50 Z M13.00,56.50 L12.50,57.00 L12.50,58.00 L13.00,58.50 L14.00,58.50 L14.50,58.00 L14.00,57.50 L13.50,57.00 L13.00,56.50 Z M17.00,56.50 L16.50,57.00 L16.50,58.00 L16.50,59.00 L16.50,60.00 L17.00,60.50 L18.00,60.50 L19.00,60.50 L19.50,61.00 L20.00,61.50 L20.50,61.00 L20.50,60.00 L20.00,59.50 L19.50,59.00 L19.00,58.50 L18.00,58.50 L17.50,58.00 L17.50,57.00 L17.00,56.50 Z M13.00,60.50 L12.50,61.00 L12.00,61.50 L11.50,62.00 L11.50,63.00 L11.50,64.00 L11.50,65.00 L11.50,66.00 L11.50,67.00 L11.50,68.00 L11.50,69.00 L12.00,69.50 L12.50,70.00 L12.50,71.00 L12.50,72.00 L12.50,73.00 L13.00,73.50 L13.50,74.00 L13.50,75.00 L14.00,75.50 L14.50,76.00 L15.00,76.50 L15.50,77.00 L16.00,77.50 L17.00,77.50 L18.00,77.50 L18.50,78.00 L19.00,78.50 L20.00,78.50 L21.00,78.50 L21.50,79.00 L22.00,79.50 L23.00,79.50 L24.00,79.50 L25.00,79.50 L26.00,79.50 L26.50,80.00 L27.00,80.50 L28.00,80.50 L29.00,80.50 L30.00,80.50 L31.00,80.50 L32.00,80.50 L33.00,80.50 L34.00,80.50 L35.00,80.50 L35.50,81.00 L36.00,81.50 L37.00,81.50 L38.00,81.50 L39.00,81.50 L40.00,81.50 L41.00,81.50 L42.00,81.50 L43.00,81.50 L43.50,82.00 L44.00,82.50 L45.00,82.50 L46.00,82.50 L46.50,82.00 L47.00,81.50 L47.50,82.00 L48.00,82.50 L48.50,82.00 L49.00,81.50 L50.00,81.50 L51.00,81.50 L52.00,81.50 L53.00,81.50 L54.00,81.50 L55.00,81.50 L56.00,81.50 L57.00,81.50 L57.50,81.00 L58.00,80.50 L59.00,80.50 L60.00,80.50 L61.00,80.50 L61.50,80.00 L62.00,79.50 L63.00,79.50 L64.00,79.50 L64.50,79.00 L65.00,78.50 L66.00,78.50 L67.00,78.50 L67.50,78.00 L68.00,77.50 L69.00,77.50 L70.00,77.50 L71.00,77.50 L72.00,77.50 L73.00,77.50 L73.50,77.00 L74.00,76.50 L75.00,76.50 L75.50,76.00 L76.00,75.50 L77.00,75.50 L77.50,75.00 L78.00,74.50 L78.50,74.00 L79.00,73.50 L80.00,73.50 L81.00,73.50 L81.50,73.00 L82.00,72.50 L82.50,72.00 L83.00,71.50 L83.50,71.00 L83.50,70.00 L83.00,69.50 L82.50,69.00 L82.50,68.00 L82.50,67.00 L83.00,66.50 L83.50,66.00 L83.50,65.00 L83.00,64.50 L82.50,65.00 L82.00,65.50 L81.50,66.00 L81.00,66.50 L80.00,66.50 L79.50,67.00 L79.00,67.50 L78.50,68.00 L78.00,68.50 L77.00,68.50 L76.50,69.00 L76.00,69.50 L75.00,69.50 L74.00,69.50 L73.50,70.00 L73.00,70.50 L72.00,70.50 L71.50,71.00 L71.00,71.50 L70.00,71.50 L69.50,72.00 L69.00,72.50 L68.50,73.00 L68.00,73.50 L67.50,74.00 L67.00,74.50 L66.00,74.50 L65.50,75.00 L65.00,75.50 L64.00,75.50 L63.00,75.50 L62.50,76.00 L62.00,76.50 L61.00,76.50 L60.00,76.50 L59.00,76.50 L58.00,76.50 L57.00,76.50 L56.00,76.50 L55.00,76.50 L54.00,76.50 L53.00,76.50 L52.00,76.50 L51.00,76.50 L50.00,76.50 L49.00,76.50 L48.00,76.50 L47.00,76.50 L46.00,76.50 L45.00,76.50 L44.00,76.50 L43.50,76.00 L43.00,75.50 L42.00,75.50 L41.50,76.00 L41.00,76.50 L40.50,76.00 L40.00,75.50 L39.00,75.50 L38.00,75.50 L37.00,75.50 L36.00,75.50 L35.00,75.50 L34.00,75.50 L33.00,75.50 L32.00,75.50 L31.00,75.50 L30.00,75.50 L29.50,75.00 L29.00,74.50 L28.00,74.50 L27.00,74.50 L26.50,74.00 L26.00,73.50 L25.00,73.50 L24.00,73.50 L23.00,73.50 L22.00,73.50 L21.50,74.00 L21.00,74.50 L20.00,74.50 L19.50,74.00 L19.00,73.50 L18.00,73.50 L17.50,73.00 L17.00,72.50 L16.50,72.00 L16.50,71.00 L16.50,70.00 L16.00,69.50 L15.00,69.50 L14.00,69.50 L13.50,69.00 L13.50,68.00 L13.00,67.50 L12.50,67.00 L12.50,66.00 L12.50,65.00 L13.00,64.50 L13.50,64.00 L13.50,63.00 L13.50,62.00 L13.50,61.00 L13.00,60.50 Z M116.50,67.00 L117.00,66.50 L117.50,67.00 L117.50,68.00 L117.50,69.00 L117.50,70.00 L117.50,71.00 L117.50,72.00 L117.50,73.00 L117.50,74.00 L117.50,75.00 L117.50,76.00 L117.50,77.00 L117.00,77.50 L116.50,78.00 L116.50,79.00 L116.50,80.00 L116.50,81.00 L116.50,82.00 L116.50,83.00 L116.50,84.00 L116.00,84.50 L115.50,84.00 L115.50,83.00 L115.50,82.00 L115.50,81.00 L115.50,80.00 L115.50,79.00 L115.50,78.00 L115.50,77.00 L115.50,76.00 L115.50,75.00 L115.50,74.00 L115.50,73.00 L115.50,72.00 L116.00,71.50 L116.50,71.00 L116.50,70.00 L116.50,69.00 L116.50,68.00 L116.50,67.00 Z M14.50,72.00 L15.00,71.50 L15.50,72.00 L15.50,73.00 L16.00,73.50 L16.50,74.00 L16.50,75.00 L16.50,76.00 L16.00,76.50 L15.50,76.00 L15.50,75.00 L15.00,74.50 L14.50,74.00 L14.50,73.00 L14.50,72.00 Z M80.00,76.50 L79.50,77.00 L79.00,77.50 L78.00,77.50 L77.50,78.00 L77.00,78.50 L76.00,78.50 L75.50,79.00 L75.00,79.50 L74.00,79.50 L73.50,80.00 L73.50,81.00 L73.50,82.00 L74.00,82.50 L74.50,83.00 L74.00,83.50 L73.50,84.00 L73.50,85.00 L73.00,85.50 L72.50,86.00 L72.00,86.50 L71.50,87.00 L71.00,87.50 L70.50,88.00 L70.50,89.00 L70.00,89.50 L69.00,89.50 L68.50,90.00 L69.00,90.50 L70.00,90.50 L71.00,90.50 L71.50,90.00 L72.00,89.50 L73.00,89.50 L73.50,89.00 L74.00,88.50 L74.50,88.00 L75.00,87.50 L76.00,87.50 L76.50,87.00 L77.00,86.50 L77.50,86.00 L77.50,85.00 L78.00,84.50 L79.00,84.50 L79.50,84.00 L80.00,83.50 L80.50,83.00 L81.00,82.50 L81.50,82.00 L81.50,81.00 L81.50,80.00 L82.00,79.50 L82.50,79.00 L82.50,78.00 L82.50,77.00 L82.00,76.50 L81.00,76.50 L80.00,76.50 Z M17.00,80.50 L16.50,81.00 L17.00,81.50 L17.50,82.00 L18.00,82.50 L18.50,83.00 L18.50,84.00 L19.00,84.50 L19.50,85.00 L20.00,85.50 L20.50,86.00 L21.00,86.50 L21.50,87.00 L22.00,87.50 L22.50,88.00 L23.00,88.50 L23.50,89.00 L24.00,89.50 L24.50,90.00 L25.00,90.50 L26.00,90.50 L27.00,90.50 L27.50,91.00 L28.00,91.50 L28.50,92.00 L29.00,92.50 L30.00,92.50 L30.50,92.00 L30.00,91.50 L29.50,91.00 L29.00,90.50 L28.50,90.00 L28.00,89.50 L27.00,89.50 L26.00,89.50 L25.00,89.50 L24.50,89.00 L24.50,88.00 L24.50,87.00 L24.00,86.50 L23.50,86.00 L23.00,85.50 L22.50,85.00 L22.50,84.00 L22.50,83.00 L22.00,82.50 L21.50,82.00 L21.00,81.50 L20.50,82.00 L20.50,83.00 L20.00,83.50 L19.50,83.00 L19.50,82.00 L19.00,81.50 L18.50,81.00 L18.00,80.50 L17.00,80.50 Z M69.00,80.50 L68.50,81.00 L68.00,81.50 L67.00,81.50 L66.00,81.50 L65.00,81.50 L64.50,82.00 L64.00,82.50 L63.00,82.50 L62.00,82.50 L61.50,83.00 L61.00,83.50 L60.00,83.50 L59.00,83.50 L58.00,83.50 L57.00,83.50 L56.50,84.00 L56.00,84.50 L55.50,85.00 L55.50,86.00 L55.00,86.50 L54.50,87.00 L54.00,87.50 L53.00,87.50 L52.00,87.50 L51.00,87.50 L50.50,87.00 L51.00,86.50 L51.50,86.00 L52.00,85.50 L52.50,85.00 L52.00,84.50 L51.00,84.50 L50.00,84.50 L49.00,84.50 L48.50,85.00 L48.50,86.00 L49.00,86.50 L49.50,87.00 L50.00,87.50 L50.50,88.00 L51.00,88.50 L52.00,88.50 L52.50,89.00 L53.00,89.50 L54.00,89.50 L55.00,89.50 L56.00,89.50 L57.00,89.50 L58.00,89.50 L59.00,89.50 L59.50,90.00 L60.00,90.50 L60.50,91.00 L61.00,91.50 L61.50,92.00 L61.00,92.50 L60.50,93.00 L60.00,93.50 L59.50,94.00 L60.00,94.50 L61.00,94.50 L61.50,94.00 L62.00,93.50 L63.00,93.50 L64.00,93.50 L65.00,93.50 L65.50,93.00 L65.50,92.00 L65.50,91.00 L65.50,90.00 L66.00,89.50 L66.50,89.00 L66.50,88.00 L67.00,87.50 L67.50,87.00 L68.00,86.50 L68.50,86.00 L68.50,85.00 L69.00,84.50 L69.50,84.00 L70.00,83.50 L70.50,83.00 L71.00,82.50 L71.50,82.00 L71.50,81.00 L71.00,80.50 L70.00,80.50 L69.00,80.50 Z M28.00,83.50 L27.50,84.00 L27.50,85.00 L28.00,85.50 L28.50,86.00 L28.50,87.00 L29.00,87.50 L29.50,88.00 L30.00,88.50 L31.00,88.50 L31.50,89.00 L32.00,89.50 L32.50,90.00 L33.00,90.50 L34.00,90.50 L34.50,91.00 L35.00,91.50 L36.00,91.50 L36.50,91.00 L36.00,90.50 L35.50,90.00 L35.00,89.50 L34.50,89.00 L34.50,88.00 L34.00,87.50 L33.50,87.00 L33.50,86.00 L33.50,85.00 L34.00,84.50 L34.50,84.00 L34.00,83.50 L33.00,83.50 L32.00,83.50 L31.00,83.50 L30.00,83.50 L29.00,83.50 L28.00,83.50 Z M36.00,83.50 L35.50,84.00 L35.50,85.00 L36.00,85.50 L36.50,86.00 L37.00,86.50 L37.50,87.00 L38.00,87.50 L39.00,87.50 L39.50,88.00 L39.50,89.00 L40.00,89.50 L40.50,90.00 L41.00,90.50 L42.00,90.50 L43.00,90.50 L44.00,90.50 L45.00,90.50 L45.50,91.00 L46.00,91.50 L47.00,91.50 L47.50,91.00 L47.50,90.00 L47.00,89.50 L46.50,89.00 L46.50,88.00 L46.50,87.00 L46.50,86.00 L46.00,85.50 L45.00,85.50 L44.00,85.50 L43.00,85.50 L42.50,85.00 L42.00,84.50 L41.50,85.00 L41.00,85.50 L40.50,85.00 L40.00,84.50 L39.00,84.50 L38.00,84.50 L37.00,84.50 L36.50,84.00 L36.00,83.50 Z M49.00,91.50 L48.50,92.00 L48.50,93.00 L49.00,93.50 L50.00,93.50 L51.00,93.50 L51.50,93.00 L51.00,92.50 L50.50,92.00 L50.00,91.50 L49.00,91.50 Z M39.00,92.50 L38.50,93.00 L39.00,93.50 L39.50,94.00 L40.00,94.50 L41.00,94.50 L42.00,94.50 L42.50,94.00 L42.00,93.50 L41.00,93.50 L40.00,93.50 L39.50,93.00 L39.00,92.50 Z M57.00,93.50 L56.50,94.00 L56.50,95.00 L57.00,95.50 L57.50,95.00 L58.00,94.50 L58.50,94.00 L58.00,93.50 L57.00,93.50 Z"/>
</svg>
